<svg width="75" height="77" viewBox="0 0 75 77" fill="transparent" xmlns="http://www.w3.org/2000/svg">
<g filter="url(#filter0_d_4623_7754)">
<path fill-rule="evenodd" clip-rule="evenodd" d="M37.4 61.6667C52.5326 61.6667 64.8 49.4291 64.8 34.3333C64.8 19.2376 52.5326 7 37.4 7C22.2674 7 10 19.2376 10 34.3333C10 49.4291 22.2674 61.6667 37.4 61.6667Z" fill="white"/>
<path d="M62.8 34.3333C62.8 48.32 51.4326 59.6667 37.4 59.6667C23.3674 59.6667 12 48.32 12 34.3333C12 20.3467 23.3674 9 37.4 9C51.4326 9 62.8 20.3467 62.8 34.3333Z" stroke="url(#paint0_radial_4623_7754)" stroke-width="4"/>
</g>
<path fill-rule="evenodd" clip-rule="evenodd" d="M38 26.5C38 25.9477 37.5523 25.5 37 25.5C36.4477 25.5 36 25.9477 36 26.5V33H29.5C28.9477 33 28.5 33.4477 28.5 34C28.5 34.5523 28.9477 35 29.5 35H36V41.5C36 42.0523 36.4477 42.5 37 42.5C37.5523 42.5 38 42.0523 38 41.5V35H44.5C45.0523 35 45.5 34.5523 45.5 34C45.5 33.4477 45.0523 33 44.5 33H38V26.5Z" fill="url(#paint1_radial_4623_7754)"/>
<defs>
<filter id="filter0_d_4623_7754" x="0" y="2" width="74.8" height="74.6667" filterUnits="userSpaceOnUse" color-interpolation-filters="sRGB">
<feFlood flood-opacity="0" result="BackgroundImageFix"/>
<feColorMatrix in="SourceAlpha" type="matrix" values="0 0 0 0 0 0 0 0 0 0 0 0 0 0 0 0 0 0 127 0" result="hardAlpha"/>
<feOffset dy="5"/>
<feGaussianBlur stdDeviation="5"/>
<feColorMatrix type="matrix" values="0 0 0 0 0.517647 0 0 0 0 0.356863 0 0 0 0 0.94902 0 0 0 0.3 0"/>
<feBlend mode="normal" in2="BackgroundImageFix" result="effect1_dropShadow_4623_7754"/>
<feBlend mode="normal" in="SourceGraphic" in2="effect1_dropShadow_4623_7754" result="shape"/>
</filter>
<radialGradient id="paint0_radial_4623_7754" cx="0" cy="0" r="1" gradientUnits="userSpaceOnUse" gradientTransform="translate(25.1674 11.0473) rotate(56.6611) scale(54.4352 54.4878)">
<stop stop-color="#ff8b99"/>
<!-- <stop offset="0.375" stop-color="#ff8b99"/>
<stop offset="0.609375" stop-color="#ff8b99"/>
<stop offset="1" stop-color="#ff8b99"/> -->
</radialGradient>
<radialGradient id="paint1_radial_4623_7754" cx="0" cy="0" r="1" gradientUnits="userSpaceOnUse" gradientTransform="translate(33.2052 26.7586) rotate(56.7251) scale(16.9156)">
<stop stop-color="#ff8b99"/>
<!-- <stop offset="0.375" stop-color="#A799F8"/>
<stop offset="0.609375" stop-color="#A799F8"/>
<stop offset="1" stop-color="#7B61FF"/> -->
</radialGradient>
</defs>
</svg>
