<svg width="20" height="22" viewBox="0 0 20 22" fill="transparent" xmlns="http://www.w3.org/2000/svg">
<path d="M6 5.05797V1M14 5.05797V1M5 9.11594H15M3 21H17C17.5304 21 18.0391 20.7862 18.4142 20.4057C18.7893 20.0252 19 19.5091 19 18.971V5.05797C19 4.51985 18.7893 4.00377 18.4142 3.62326C18.0391 3.24275 17.5304 3.02899 17 3.02899H3C2.46957 3.02899 1.96086 3.24275 1.58579 3.62326C1.21071 4.00377 1 4.51985 1 5.05797V18.971C1 19.5091 1.21071 20.0252 1.58579 20.4057C1.96086 20.7862 2.46957 21 3 21Z" stroke="#AFB0B8" stroke-width="2" stroke-linecap="round" stroke-linejoin="round"/>
</svg>
