<svg width="25" height="25" viewBox="0 0 25 25" fill="none" xmlns="http://www.w3.org/2000/svg">
<path fill-rule="evenodd" clip-rule="evenodd" d="M4.5 0C4.20163 0 3.91548 0.122916 3.7045 0.341709C3.49353 0.560501 3.375 0.857247 3.375 1.16667V2.33333H2.25C1.65326 2.33333 1.08097 2.57917 0.65901 3.01675C0.237053 3.45434 0 4.04783 0 4.66667V18.6667C0 19.2855 0.237053 19.879 0.65901 20.3166C1.08097 20.7542 1.65326 21 2.25 21H15.75C16.3467 21 16.919 20.7542 17.341 20.3166C17.7629 19.879 18 19.2855 18 18.6667V4.66667C18 4.04783 17.7629 3.45434 17.341 3.01675C16.919 2.57917 16.3467 2.33333 15.75 2.33333H14.625V1.16667C14.625 0.857247 14.5065 0.560501 14.2955 0.341709C14.0845 0.122916 13.7984 0 13.5 0C13.2016 0 12.9155 0.122916 12.7045 0.341709C12.4935 0.560501 12.375 0.857247 12.375 1.16667V2.33333H5.625V1.16667C5.625 0.857247 5.50647 0.560501 5.2955 0.341709C5.08452 0.122916 4.79837 0 4.5 0ZM4.5 5.83333C4.20163 5.83333 3.91548 5.95625 3.7045 6.17504C3.49353 6.39383 3.375 6.69058 3.375 7C3.375 7.30942 3.49353 7.60616 3.7045 7.82496C3.91548 8.04375 4.20163 8.16667 4.5 8.16667H13.5C13.7984 8.16667 14.0845 8.04375 14.2955 7.82496C14.5065 7.60616 14.625 7.30942 14.625 7C14.625 6.69058 14.5065 6.39383 14.2955 6.17504C14.0845 5.95625 13.7984 5.83333 13.5 5.83333H4.5Z" fill="url(#paint0_linear_4623_7753)"/>
<defs>
<linearGradient id="paint0_linear_4623_7753" x1="-4.84479" y1="-15.9151" x2="19.2831" y2="15.5989" gradientUnits="userSpaceOnUse">
<stop stop-color="#ff8b99"/>
</linearGradient>
</defs>
</svg>
