<svg width="24" height="24" viewBox="0 0 24 24" fill="none" xmlns="http://www.w3.org/2000/svg">
  <path fill-rule="evenodd" clip-rule="evenodd" d="M15.5254 6.79633C15.5254 8.05226 15.8574 8.79253 16.5879 9.64559C17.1415 10.2741 17.3184 11.0808 17.3184 11.956C17.3184 12.8302 17.0311 13.6601 16.4557 14.3339C15.7023 15.1417 14.6399 15.6573 13.5556 15.747C11.9843 15.8809 10.412 15.9937 8.81886 15.9937C7.2247 15.9937 5.65341 15.9263 4.08211 15.747C2.99682 15.6573 1.93438 15.1417 1.18202 14.3339C0.606579 13.6601 0.318359 12.8302 0.318359 11.956C0.318359 11.0808 0.496261 10.2741 1.04885 9.64559C1.80219 8.79253 2.11228 8.05226 2.11228 6.79633V6.3703C2.11228 4.68834 2.53169 3.58852 3.39535 2.51186C4.67942 0.941697 6.73771 0 8.77413 0H8.86358C10.9437 0 13.0686 0.987019 14.3308 2.62466C15.1498 3.67916 15.5254 4.73265 15.5254 6.3703V6.79633ZM5.89203 18.0608C5.89203 17.5573 6.35418 17.3266 6.78154 17.2279C7.28145 17.1222 10.3276 17.1222 10.8275 17.2279C11.2549 17.3266 11.7171 17.5573 11.7171 18.0608C11.6922 18.5402 11.4109 18.9653 11.0223 19.2352C10.5185 19.628 9.92711 19.8767 9.30893 19.9664C8.96704 20.0107 8.63112 20.0117 8.30115 19.9664C7.68198 19.8767 7.09063 19.628 6.58774 19.2342C6.19814 18.9653 5.91688 18.5402 5.89203 18.0608Z" fill="#ff8b99"/>
</svg>
